# xmcd CD database file
#
# Track frame offsets:
#	150
#	18693
#	35760
#
# Disc length: 719 seconds
#
# Revision: 2
# Processed by: cddbd v1.5.1PL2 Copyright (c) Steve Scherf et al.
# Submitted via: CDex 1.51
#
DISCID=2202cd03
DTITLE=山田タマル - My Brand New Eden
DYEAR=2006
DGENRE=J-Pop
TTITLE0=My Brand New Eden
TTITLE1=灰色の朝
TTITLE2=My Brand New Eden (Instrumental)
EXTD=YEAR: 2006
EXTT0=
EXTT1=
EXTT2=
PLAYORDER=
